[
    {
        "pitch": 55,
        "velocity": 118,
        "start": 16.714269,
        "end": 16.883911687500003
    },
    {
        "pitch": 55,
        "velocity": 118,
        "start": 16.9285545,
        "end": 17.098197187500002
    },
    {
        "pitch": 55,
        "velocity": 118,
        "start": 17.14284,
        "end": 17.5267681875
    },
    {
        "pitch": 55,
        "velocity": 118,
        "start": 17.571411,
        "end": 17.741053687500003
    },
    {
        "pitch": 57,
        "velocity": 118,
        "start": 17.7856965,
        "end": 18.1696246875
    },
    {
        "pitch": 52,
        "velocity": 118,
        "start": 18.214267500000002,
        "end": 18.598195687500002
    },
    {
        "pitch": 55,
        "velocity": 118,
        "start": 18.6428385,
        "end": 19.241052187500003
    },
    {
        "pitch": 55,
        "velocity": 118,
        "start": 19.285695,
        "end": 19.6696231875
    },
    {
        "pitch": 60,
        "velocity": 118,
        "start": 19.714266000000002,
        "end": 19.8839086875
    },
    {
        "pitch": 62,
        "velocity": 118,
        "start": 19.9285515,
        "end": 20.5267651875
    },
    {
        "pitch": 64,
        "velocity": 118,
        "start": 20.571408,
        "end": 20.741050687500003
    },
    {
        "pitch": 64,
        "velocity": 118,
        "start": 20.7856935,
        "end": 20.955336187500002
    },
    {
        "pitch": 64,
        "velocity": 118,
        "start": 20.999979000000003,
        "end": 21.812478187500002
    },
    {
        "pitch": 62,
        "velocity": 118,
        "start": 21.857121000000003,
        "end": 22.0267636875
    },
    {
        "pitch": 62,
        "velocity": 118,
        "start": 22.071406500000002,
        "end": 22.455334687500002
    },
    {
        "pitch": 60,
        "velocity": 118,
        "start": 22.499977500000004,
        "end": 22.6696201875
    },
    {
        "pitch": 60,
        "velocity": 118,
        "start": 22.714263000000003,
        "end": 23.5267621875
    },
    {
        "pitch": 55,
        "velocity": 118,
        "start": 23.7856905,
        "end": 23.955333187500003
    },
    {
        "pitch": 64,
        "velocity": 118,
        "start": 23.999976000000004,
        "end": 24.1696186875
    },
    {
        "pitch": 64,
        "velocity": 118,
        "start": 24.214261500000003,
        "end": 24.812475187500002
    },
    {
        "pitch": 65,
        "velocity": 118,
        "start": 24.857118000000003,
        "end": 25.241046187500004
    },
    {
        "pitch": 64,
        "velocity": 118,
        "start": 25.285689,
        "end": 25.455331687500003
    },
    {
        "pitch": 64,
        "velocity": 118,
        "start": 25.4999745,
        "end": 25.8839026875
    },
    {
        "pitch": 62,
        "velocity": 118,
        "start": 25.928545500000002,
        "end": 26.5267591875
    },
    {
        "pitch": 64,
        "velocity": 118,
        "start": 26.7856875,
        "end": 26.955330187500003
    },
    {
        "pitch": 62,
        "velocity": 118,
        "start": 26.999973,
        "end": 27.169615687500002
    },
    {
        "pitch": 62,
        "velocity": 118,
        "start": 27.214258500000003,
        "end": 27.598186687500004
    },
    {
        "pitch": 60,
        "velocity": 118,
        "start": 27.6428295,
        "end": 29.098185187500004
    },
    {
        "pitch": 55,
        "velocity": 118,
        "start": 30.6428265,
        "end": 30.812469187500003
    },
    {
        "pitch": 55,
        "velocity": 118,
        "start": 30.857112,
        "end": 31.2410401875
    },
    {
        "pitch": 55,
        "velocity": 118,
        "start": 31.285683000000002,
        "end": 31.455325687500004
    },
    {
        "pitch": 57,
        "velocity": 118,
        "start": 31.4999685,
        "end": 31.883896687500002
    },
    {
        "pitch": 52,
        "velocity": 118,
        "start": 31.928539500000003,
        "end": 32.3124676875
    },
    {
        "pitch": 55,
        "velocity": 118,
        "start": 32.357110500000005,
        "end": 32.955324187500004
    },
    {
        "pitch": 55,
        "velocity": 118,
        "start": 32.999967000000005,
        "end": 33.3838951875
    },
    {
        "pitch": 60,
        "velocity": 118,
        "start": 33.428538,
        "end": 33.598180687500005
    },
    {
        "pitch": 62,
        "velocity": 118,
        "start": 33.642823500000006,
        "end": 34.241037187500005
    },
    {
        "pitch": 64,
        "velocity": 118,
        "start": 34.28568,
        "end": 34.4553226875
    },
    {
        "pitch": 64,
        "velocity": 118,
        "start": 34.4999655,
        "end": 34.6696081875
    },
    {
        "pitch": 64,
        "velocity": 118,
        "start": 34.714251000000004,
        "end": 35.52675018750001
    },
    {
        "pitch": 62,
        "velocity": 118,
        "start": 35.571393,
        "end": 35.7410356875
    },
    {
        "pitch": 62,
        "velocity": 118,
        "start": 35.7856785,
        "end": 36.1696066875
    },
    {
        "pitch": 60,
        "velocity": 118,
        "start": 36.2142495,
        "end": 36.3838921875
    },
    {
        "pitch": 60,
        "velocity": 118,
        "start": 36.428535000000004,
        "end": 37.241034187500006
    },
    {
        "pitch": 55,
        "velocity": 118,
        "start": 37.4999625,
        "end": 37.669605187500004
    },
    {
        "pitch": 64,
        "velocity": 118,
        "start": 37.714248000000005,
        "end": 37.883890687500006
    },
    {
        "pitch": 64,
        "velocity": 118,
        "start": 37.9285335,
        "end": 38.5267471875
    },
    {
        "pitch": 65,
        "velocity": 118,
        "start": 38.57139,
        "end": 38.955318187500005
    },
    {
        "pitch": 64,
        "velocity": 118,
        "start": 38.999961000000006,
        "end": 39.1696036875
    },
    {
        "pitch": 64,
        "velocity": 118,
        "start": 39.2142465,
        "end": 39.598174687500006
    },
    {
        "pitch": 62,
        "velocity": 118,
        "start": 39.64281750000001,
        "end": 40.241031187500006
    },
    {
        "pitch": 64,
        "velocity": 118,
        "start": 40.4999595,
        "end": 40.669602187500004
    },
    {
        "pitch": 62,
        "velocity": 118,
        "start": 40.714245000000005,
        "end": 40.88388768750001
    },
    {
        "pitch": 62,
        "velocity": 118,
        "start": 40.9285305,
        "end": 41.312458687500005
    },
    {
        "pitch": 60,
        "velocity": 118,
        "start": 41.357101500000006,
        "end": 42.8124571875
    },
    {
        "pitch": 64,
        "velocity": 118,
        "start": 43.714242000000006,
        "end": 43.8838846875
    },
    {
        "pitch": 62,
        "velocity": 118,
        "start": 43.9285275,
        "end": 44.312455687500005
    },
    {
        "pitch": 60,
        "velocity": 118,
        "start": 44.357098500000006,
        "end": 45.383883187500004
    },
    {
        "pitch": 64,
        "velocity": 118,
        "start": 45.428526000000005,
        "end": 45.59816868750001
    },
    {
        "pitch": 67,
        "velocity": 118,
        "start": 45.6428115,
        "end": 46.026739687500005
    },
    {
        "pitch": 69,
        "velocity": 118,
        "start": 46.071382500000006,
        "end": 47.0981671875
    },
    {
        "pitch": 67,
        "velocity": 118,
        "start": 47.142810000000004,
        "end": 47.312452687500006
    },
    {
        "pitch": 67,
        "velocity": 118,
        "start": 47.35709550000001,
        "end": 47.5267381875
    },
    {
        "pitch": 64,
        "velocity": 118,
        "start": 47.571381,
        "end": 47.741023687500004
    },
    {
        "pitch": 62,
        "velocity": 118,
        "start": 47.785666500000005,
        "end": 47.955309187500006
    },
    {
        "pitch": 60,
        "velocity": 118,
        "start": 47.99995200000001,
        "end": 48.8124511875
    },
    {
        "pitch": 57,
        "velocity": 118,
        "start": 48.857094000000004,
        "end": 49.026736687500005
    },
    {
        "pitch": 55,
        "velocity": 118,
        "start": 49.071379500000006,
        "end": 49.4553076875
    },
    {
        "pitch": 64,
        "velocity": 118,
        "start": 49.499950500000004,
        "end": 50.95530618750001
    },
    {
        "pitch": 64,
        "velocity": 118,
        "start": 51.6428055,
        "end": 51.8124481875
    },
    {
        "pitch": 64,
        "velocity": 118,
        "start": 51.857091000000004,
        "end": 52.026733687500005
    },
    {
        "pitch": 64,
        "velocity": 118,
        "start": 52.07137650000001,
        "end": 52.2410191875
    },
    {
        "pitch": 65,
        "velocity": 118,
        "start": 52.285662,
        "end": 52.669590187500006
    },
    {
        "pitch": 64,
        "velocity": 118,
        "start": 52.71423300000001,
        "end": 52.8838756875
    },
    {
        "pitch": 64,
        "velocity": 118,
        "start": 52.9285185,
        "end": 53.098161187500004
    },
    {
        "pitch": 62,
        "velocity": 118,
        "start": 53.142804000000005,
        "end": 53.95530318750001
    },
    {
        "pitch": 64,
        "velocity": 118,
        "start": 54.214231500000004,
        "end": 54.383874187500005
    },
    {
        "pitch": 62,
        "velocity": 118,
        "start": 54.42851700000001,
        "end": 54.59815968750001
    },
    {
        "pitch": 62,
        "velocity": 118,
        "start": 54.6428025,
        "end": 55.026730687500006
    },
    {
        "pitch": 60,
        "velocity": 118,
        "start": 55.07137350000001,
        "end": 56.5267291875
    },
    {
        "pitch": 55,
        "velocity": 118,
        "start": 58.07137050000001,
        "end": 58.2410131875
    },
    {
        "pitch": 55,
        "velocity": 118,
        "start": 58.285656,
        "end": 58.66958418750001
    },
    {
        "pitch": 55,
        "velocity": 118,
        "start": 58.71422700000001,
        "end": 58.8838696875
    },
    {
        "pitch": 55,
        "velocity": 118,
        "start": 58.928512500000004,
        "end": 59.098155187500005
    },
    {
        "pitch": 57,
        "velocity": 118,
        "start": 59.142798000000006,
        "end": 59.31244068750001
    },
    {
        "pitch": 60,
        "velocity": 118,
        "start": 59.3570835,
        "end": 59.741011687500006
    },
    {
        "pitch": 57,
        "velocity": 118,
        "start": 59.78565450000001,
        "end": 59.95529718750001
    },
    {
        "pitch": 55,
        "velocity": 118,
        "start": 59.99994,
        "end": 60.169582687500004
    },
    {
        "pitch": 55,
        "velocity": 118,
        "start": 60.214225500000005,
        "end": 60.5981536875
    },
    {
        "pitch": 60,
        "velocity": 118,
        "start": 60.6427965,
        "end": 61.02672468750001
    },
    {
        "pitch": 62,
        "velocity": 118,
        "start": 61.07136750000001,
        "end": 61.455295687500005
    },
    {
        "pitch": 64,
        "velocity": 118,
        "start": 61.714224,
        "end": 61.8838666875
    },
    {
        "pitch": 64,
        "velocity": 118,
        "start": 61.928509500000004,
        "end": 62.098152187500006
    },
    {
        "pitch": 64,
        "velocity": 118,
        "start": 62.14279500000001,
        "end": 62.741008687500006
    },
    {
        "pitch": 62,
        "velocity": 118,
        "start": 62.78565150000001,
        "end": 62.95529418750001
    },
    {
        "pitch": 62,
        "velocity": 118,
        "start": 62.999937,
        "end": 63.5981506875
    },
    {
        "pitch": 60,
        "velocity": 118,
        "start": 63.6427935,
        "end": 63.812436187500005
    },
    {
        "pitch": 60,
        "velocity": 118,
        "start": 63.857079000000006,
        "end": 64.66957818750001
    },
    {
        "pitch": 64,
        "velocity": 118,
        "start": 65.142792,
        "end": 65.5267201875
    },
    {
        "pitch": 64,
        "velocity": 118,
        "start": 65.571363,
        "end": 65.95529118750001
    },
    {
        "pitch": 65,
        "velocity": 118,
        "start": 65.99993400000001,
        "end": 66.16957668750001
    },
    {
        "pitch": 67,
        "velocity": 118,
        "start": 66.2142195,
        "end": 66.3838621875
    },
    {
        "pitch": 64,
        "velocity": 118,
        "start": 66.428505,
        "end": 66.8124331875
    },
    {
        "pitch": 62,
        "velocity": 118,
        "start": 66.857076,
        "end": 67.6695751875
    },
    {
        "pitch": 64,
        "velocity": 118,
        "start": 67.9285035,
        "end": 68.0981461875
    },
    {
        "pitch": 62,
        "velocity": 118,
        "start": 68.14278900000001,
        "end": 68.31243168750001
    },
    {
        "pitch": 62,
        "velocity": 118,
        "start": 68.35707450000001,
        "end": 68.7410026875
    },
    {
        "pitch": 60,
        "velocity": 118,
        "start": 68.7856455,
        "end": 70.2410011875
    },
    {
        "pitch": 52,
        "velocity": 118,
        "start": 71.78564250000001,
        "end": 71.95528518750001
    },
    {
        "pitch": 55,
        "velocity": 118,
        "start": 71.99992800000001,
        "end": 72.3838561875
    },
    {
        "pitch": 55,
        "velocity": 118,
        "start": 72.428499,
        "end": 72.5981416875
    },
    {
        "pitch": 57,
        "velocity": 118,
        "start": 72.6427845,
        "end": 73.02671268750001
    },
    {
        "pitch": 60,
        "velocity": 118,
        "start": 73.07135550000001,
        "end": 73.24099818750001
    },
    {
        "pitch": 57,
        "velocity": 118,
        "start": 73.28564100000001,
        "end": 73.4552836875
    },
    {
        "pitch": 55,
        "velocity": 118,
        "start": 73.4999265,
        "end": 74.52671118750001
    },
    {
        "pitch": 60,
        "velocity": 118,
        "start": 74.7856395,
        "end": 74.9552821875
    },
    {
        "pitch": 62,
        "velocity": 118,
        "start": 74.999925,
        "end": 75.38385318750001
    },
    {
        "pitch": 64,
        "velocity": 118,
        "start": 75.42849600000001,
        "end": 75.59813868750001
    },
    {
        "pitch": 64,
        "velocity": 118,
        "start": 75.64278150000001,
        "end": 75.8124241875
    },
    {
        "pitch": 64,
        "velocity": 118,
        "start": 75.857067,
        "end": 76.66956618750001
    },
    {
        "pitch": 62,
        "velocity": 118,
        "start": 76.71420900000001,
        "end": 76.88385168750001
    },
    {
        "pitch": 69,
        "velocity": 118,
        "start": 76.9284945,
        "end": 77.3124226875
    },
    {
        "pitch": 64,
        "velocity": 118,
        "start": 77.3570655,
        "end": 77.74099368750001
    },
    {
        "pitch": 64,
        "velocity": 118,
        "start": 77.78563650000001,
        "end": 77.95527918750001
    },
    {
        "pitch": 62,
        "velocity": 118,
        "start": 77.99992200000001,
        "end": 78.1695646875
    },
    {
        "pitch": 60,
        "velocity": 118,
        "start": 78.2142075,
        "end": 78.3838501875
    },
    {
        "pitch": 64,
        "velocity": 118,
        "start": 78.85706400000001,
        "end": 79.24099218750001
    },
    {
        "pitch": 64,
        "velocity": 118,
        "start": 79.28563500000001,
        "end": 79.6695631875
    },
    {
        "pitch": 65,
        "velocity": 118,
        "start": 79.714206,
        "end": 79.8838486875
    },
    {
        "pitch": 64,
        "velocity": 118,
        "start": 79.9284915,
        "end": 80.09813418750001
    },
    {
        "pitch": 64,
        "velocity": 118,
        "start": 80.14277700000001,
        "end": 80.52670518750001
    },
    {
        "pitch": 62,
        "velocity": 118,
        "start": 80.571348,
        "end": 81.38384718750001
    },
    {
        "pitch": 64,
        "velocity": 118,
        "start": 81.64277550000001,
        "end": 81.8124181875
    },
    {
        "pitch": 62,
        "velocity": 118,
        "start": 81.857061,
        "end": 82.0267036875
    },
    {
        "pitch": 62,
        "velocity": 118,
        "start": 82.0713465,
        "end": 82.45527468750001
    },
    {
        "pitch": 60,
        "velocity": 118,
        "start": 82.49991750000001,
        "end": 83.5267021875
    },
    {
        "pitch": 64,
        "velocity": 118,
        "start": 84.85705800000001,
        "end": 85.02670068750001
    },
    {
        "pitch": 62,
        "velocity": 118,
        "start": 85.07134350000001,
        "end": 85.4552716875
    },
    {
        "pitch": 60,
        "velocity": 118,
        "start": 85.4999145,
        "end": 86.5266991875
    },
    {
        "pitch": 64,
        "velocity": 118,
        "start": 86.571342,
        "end": 86.7409846875
    },
    {
        "pitch": 67,
        "velocity": 118,
        "start": 86.7856275,
        "end": 86.9552701875
    },
    {
        "pitch": 69,
        "velocity": 118,
        "start": 86.999913,
        "end": 88.0266976875
    },
    {
        "pitch": 67,
        "velocity": 118,
        "start": 88.28562600000001,
        "end": 88.45526868750001
    },
    {
        "pitch": 67,
        "velocity": 118,
        "start": 88.49991150000001,
        "end": 88.66955418750001
    },
    {
        "pitch": 64,
        "velocity": 118,
        "start": 88.71419700000001,
        "end": 88.88383968750001
    },
    {
        "pitch": 62,
        "velocity": 118,
        "start": 88.9284825,
        "end": 89.0981251875
    },
    {
        "pitch": 60,
        "velocity": 118,
        "start": 89.142768,
        "end": 89.95526718750001
    },
    {
        "pitch": 57,
        "velocity": 118,
        "start": 89.99991000000001,
        "end": 90.1695526875
    },
    {
        "pitch": 55,
        "velocity": 118,
        "start": 90.2141955,
        "end": 90.5981236875
    },
    {
        "pitch": 64,
        "velocity": 118,
        "start": 90.64276650000001,
        "end": 92.09812218750001
    },
    {
        "pitch": 55,
        "velocity": 118,
        "start": 92.35705050000001,
        "end": 92.5266931875
    },
    {
        "pitch": 64,
        "velocity": 118,
        "start": 92.571336,
        "end": 92.9552641875
    },
    {
        "pitch": 64,
        "velocity": 118,
        "start": 92.99990700000001,
        "end": 93.38383518750001
    },
    {
        "pitch": 67,
        "velocity": 118,
        "start": 93.42847800000001,
        "end": 93.8124061875
    },
    {
        "pitch": 64,
        "velocity": 118,
        "start": 93.857049,
        "end": 94.45526268750001
    },
    {
        "pitch": 62,
        "velocity": 118,
        "start": 94.49990550000001,
        "end": 94.66954818750001
    },
    {
        "pitch": 64,
        "velocity": 118,
        "start": 95.35704750000001,
        "end": 95.52669018750001
    },
    {
        "pitch": 62,
        "velocity": 118,
        "start": 95.57133300000001,
        "end": 95.74097568750001
    },
    {
        "pitch": 62,
        "velocity": 118,
        "start": 95.78561850000001,
        "end": 96.1695466875
    },
    {
        "pitch": 60,
        "velocity": 118,
        "start": 96.2141895,
        "end": 97.6695451875
    },
    {
        "pitch": 64,
        "velocity": 118,
        "start": 98.7856155,
        "end": 98.95525818750001
    },
    {
        "pitch": 62,
        "velocity": 118,
        "start": 98.99990100000001,
        "end": 99.16954368750001
    },
    {
        "pitch": 60,
        "velocity": 118,
        "start": 99.21418650000001,
        "end": 100.24097118750001
    },
    {
        "pitch": 64,
        "velocity": 118,
        "start": 100.28561400000001,
        "end": 100.45525668750001
    },
    {
        "pitch": 67,
        "velocity": 118,
        "start": 100.49989950000001,
        "end": 100.66954218750001
    },
    {
        "pitch": 69,
        "velocity": 118,
        "start": 100.71418500000001,
        "end": 101.52668418750001
    },
    {
        "pitch": 67,
        "velocity": 118,
        "start": 101.999898,
        "end": 102.1695406875
    },
    {
        "pitch": 67,
        "velocity": 118,
        "start": 102.2141835,
        "end": 102.3838261875
    },
    {
        "pitch": 64,
        "velocity": 118,
        "start": 102.428469,
        "end": 102.59811168750001
    },
    {
        "pitch": 62,
        "velocity": 118,
        "start": 102.64275450000001,
        "end": 102.81239718750001
    },
    {
        "pitch": 60,
        "velocity": 118,
        "start": 102.85704000000001,
        "end": 103.6695391875
    },
    {
        "pitch": 57,
        "velocity": 118,
        "start": 103.71418200000001,
        "end": 103.88382468750001
    },
    {
        "pitch": 55,
        "velocity": 118,
        "start": 103.92846750000001,
        "end": 104.31239568750001
    },
    {
        "pitch": 64,
        "velocity": 118,
        "start": 104.3570385,
        "end": 105.8123941875
    },
    {
        "pitch": 64,
        "velocity": 118,
        "start": 106.28560800000001,
        "end": 106.66953618750001
    },
    {
        "pitch": 64,
        "velocity": 118,
        "start": 106.71417900000002,
        "end": 106.8838216875
    },
    {
        "pitch": 64,
        "velocity": 118,
        "start": 106.9284645,
        "end": 107.0981071875
    },
    {
        "pitch": 65,
        "velocity": 118,
        "start": 107.14275,
        "end": 107.52667818750001
    },
    {
        "pitch": 64,
        "velocity": 118,
        "start": 107.57132100000001,
        "end": 107.95524918750002
    },
    {
        "pitch": 64,
        "velocity": 118,
        "start": 107.999892,
        "end": 108.1695346875
    },
    {
        "pitch": 62,
        "velocity": 118,
        "start": 108.2141775,
        "end": 108.81239118750001
    },
    {
        "pitch": 64,
        "velocity": 118,
        "start": 109.07131950000002,
        "end": 109.2409621875
    },
    {
        "pitch": 62,
        "velocity": 118,
        "start": 109.285605,
        "end": 109.4552476875
    },
    {
        "pitch": 62,
        "velocity": 118,
        "start": 109.4998905,
        "end": 109.88381868750001
    },
    {
        "pitch": 60,
        "velocity": 118,
        "start": 109.92846150000001,
        "end": 111.38381718750001
    },
    {
        "pitch": 64,
        "velocity": 118,
        "start": 153.42841800000002,
        "end": 153.5980606875
    },
    {
        "pitch": 62,
        "velocity": 118,
        "start": 153.6427035,
        "end": 154.02663168750001
    },
    {
        "pitch": 60,
        "velocity": 118,
        "start": 154.07127450000002,
        "end": 155.0980591875
    },
    {
        "pitch": 64,
        "velocity": 118,
        "start": 155.142702,
        "end": 155.3123446875
    },
    {
        "pitch": 67,
        "velocity": 118,
        "start": 155.3569875,
        "end": 155.52663018750002
    },
    {
        "pitch": 69,
        "velocity": 118,
        "start": 155.57127300000002,
        "end": 156.3837721875
    },
    {
        "pitch": 55,
        "velocity": 118,
        "start": 156.64270050000002,
        "end": 156.8123431875
    },
    {
        "pitch": 67,
        "velocity": 118,
        "start": 156.856986,
        "end": 157.02662868750002
    },
    {
        "pitch": 67,
        "velocity": 118,
        "start": 157.07127150000002,
        "end": 157.2409141875
    },
    {
        "pitch": 64,
        "velocity": 118,
        "start": 157.285557,
        "end": 157.45519968750003
    },
    {
        "pitch": 62,
        "velocity": 118,
        "start": 157.4998425,
        "end": 157.66948518750002
    },
    {
        "pitch": 60,
        "velocity": 118,
        "start": 157.71412800000002,
        "end": 158.09805618750002
    },
    {
        "pitch": 62,
        "velocity": 118,
        "start": 158.14269900000002,
        "end": 158.3123416875
    },
    {
        "pitch": 60,
        "velocity": 118,
        "start": 158.3569845,
        "end": 158.52662718750003
    },
    {
        "pitch": 57,
        "velocity": 118,
        "start": 158.57127000000003,
        "end": 158.7409126875
    },
    {
        "pitch": 55,
        "velocity": 118,
        "start": 158.78555550000002,
        "end": 159.16948368750002
    },
    {
        "pitch": 64,
        "velocity": 118,
        "start": 159.21412650000002,
        "end": 160.24091118750002
    },
    {
        "pitch": 55,
        "velocity": 118,
        "start": 160.9284105,
        "end": 161.0980531875
    },
    {
        "pitch": 64,
        "velocity": 118,
        "start": 161.142696,
        "end": 161.5266241875
    },
    {
        "pitch": 64,
        "velocity": 118,
        "start": 161.571267,
        "end": 161.74090968750002
    },
    {
        "pitch": 64,
        "velocity": 118,
        "start": 161.78555250000002,
        "end": 161.9551951875
    },
    {
        "pitch": 65,
        "velocity": 118,
        "start": 161.999838,
        "end": 162.38376618750002
    },
    {
        "pitch": 64,
        "velocity": 118,
        "start": 162.42840900000002,
        "end": 162.81233718750002
    },
    {
        "pitch": 64,
        "velocity": 118,
        "start": 162.85698000000002,
        "end": 163.0266226875
    },
    {
        "pitch": 62,
        "velocity": 118,
        "start": 163.0712655,
        "end": 163.6694791875
    },
    {
        "pitch": 64,
        "velocity": 118,
        "start": 163.92840750000002,
        "end": 164.0980501875
    },
    {
        "pitch": 62,
        "velocity": 118,
        "start": 164.142693,
        "end": 164.31233568750002
    },
    {
        "pitch": 62,
        "velocity": 118,
        "start": 164.35697850000003,
        "end": 164.7409066875
    },
    {
        "pitch": 60,
        "velocity": 118,
        "start": 164.7855495,
        "end": 165.38376318750002
    },
    {
        "pitch": 72,
        "velocity": 118,
        "start": 165.42840600000002,
        "end": 166.70519043750002
    },
    {
        "pitch": 55,
        "velocity": 118,
        "start": 167.7855465,
        "end": 167.95518918750003
    },
    {
        "pitch": 55,
        "velocity": 118,
        "start": 167.99983200000003,
        "end": 168.3837601875
    },
    {
        "pitch": 55,
        "velocity": 118,
        "start": 168.428403,
        "end": 168.59804568750002
    },
    {
        "pitch": 57,
        "velocity": 118,
        "start": 168.64268850000002,
        "end": 169.02661668750002
    },
    {
        "pitch": 52,
        "velocity": 118,
        "start": 169.07125950000002,
        "end": 169.4551876875
    },
    {
        "pitch": 55,
        "velocity": 118,
        "start": 169.4998305,
        "end": 170.09804418750002
    },
    {
        "pitch": 55,
        "velocity": 118,
        "start": 170.14268700000002,
        "end": 170.52661518750003
    },
    {
        "pitch": 60,
        "velocity": 118,
        "start": 170.78554350000002,
        "end": 170.9551861875
    },
    {
        "pitch": 62,
        "velocity": 118,
        "start": 170.999829,
        "end": 171.16947168750002
    },
    {
        "pitch": 64,
        "velocity": 118,
        "start": 171.4284,
        "end": 171.59804268750003
    },
    {
        "pitch": 64,
        "velocity": 118,
        "start": 171.64268550000003,
        "end": 171.81232818750001
    },
    {
        "pitch": 64,
        "velocity": 118,
        "start": 171.85697100000002,
        "end": 172.4551846875
    },
    {
        "pitch": 62,
        "velocity": 118,
        "start": 172.4998275,
        "end": 172.66947018750002
    },
    {
        "pitch": 62,
        "velocity": 118,
        "start": 172.71411300000003,
        "end": 173.31232668750002
    },
    {
        "pitch": 60,
        "velocity": 118,
        "start": 173.35696950000002,
        "end": 173.5266121875
    },
    {
        "pitch": 62,
        "velocity": 118,
        "start": 173.571255,
        "end": 173.9551831875
    },
    {
        "pitch": 64,
        "velocity": 118,
        "start": 174.85696800000002,
        "end": 175.24089618750003
    },
    {
        "pitch": 64,
        "velocity": 118,
        "start": 175.28553900000003,
        "end": 175.6694671875
    },
    {
        "pitch": 65,
        "velocity": 118,
        "start": 175.71411,
        "end": 175.88375268750002
    },
    {
        "pitch": 67,
        "velocity": 118,
        "start": 175.92839550000002,
        "end": 176.0980381875
    },
    {
        "pitch": 64,
        "velocity": 118,
        "start": 176.142681,
        "end": 176.7408946875
    },
    {
        "pitch": 62,
        "velocity": 118,
        "start": 176.7855375,
        "end": 176.95518018750002
    },
    {
        "pitch": 64,
        "velocity": 118,
        "start": 177.6426795,
        "end": 177.8123221875
    },
    {
        "pitch": 62,
        "velocity": 118,
        "start": 177.856965,
        "end": 178.02660768750002
    },
    {
        "pitch": 62,
        "velocity": 118,
        "start": 178.07125050000002,
        "end": 178.45517868750002
    },
    {
        "pitch": 60,
        "velocity": 118,
        "start": 178.49982150000002,
        "end": 179.95517718750003
    },
    {
        "pitch": 52,
        "velocity": 118,
        "start": 181.4998185,
        "end": 181.66946118750002
    },
    {
        "pitch": 55,
        "velocity": 118,
        "start": 181.71410400000002,
        "end": 181.8837466875
    },
    {
        "pitch": 55,
        "velocity": 118,
        "start": 181.9283895,
        "end": 182.09803218750002
    },
    {
        "pitch": 57,
        "velocity": 118,
        "start": 182.571246,
        "end": 182.9551741875
    },
    {
        "pitch": 52,
        "velocity": 118,
        "start": 182.999817,
        "end": 183.16945968750002
    },
    {
        "pitch": 55,
        "velocity": 118,
        "start": 183.21410250000002,
        "end": 183.81231618750002
    },
    {
        "pitch": 55,
        "velocity": 118,
        "start": 183.85695900000002,
        "end": 184.0266016875
    },
    {
        "pitch": 60,
        "velocity": 118,
        "start": 184.0712445,
        "end": 184.4551726875
    },
    {
        "pitch": 62,
        "velocity": 118,
        "start": 184.4998155,
        "end": 184.66945818750003
    },
    {
        "pitch": 64,
        "velocity": 118,
        "start": 185.142672,
        "end": 185.31231468750002
    },
    {
        "pitch": 64,
        "velocity": 118,
        "start": 185.35695750000002,
        "end": 185.5266001875
    },
    {
        "pitch": 64,
        "velocity": 118,
        "start": 185.571243,
        "end": 186.38374218750002
    },
    {
        "pitch": 67,
        "velocity": 118,
        "start": 186.42838500000002,
        "end": 186.5980276875
    },
    {
        "pitch": 64,
        "velocity": 118,
        "start": 186.6426705,
        "end": 187.0265986875
    },
    {
        "pitch": 62,
        "velocity": 118,
        "start": 187.0712415,
        "end": 187.24088418750003
    },
    {
        "pitch": 60,
        "velocity": 118,
        "start": 187.285527,
        "end": 187.45516968750002
    },
    {
        "pitch": 62,
        "velocity": 118,
        "start": 187.49981250000002,
        "end": 187.6694551875
    },
    {
        "pitch": 64,
        "velocity": 118,
        "start": 188.57124000000002,
        "end": 188.95516818750002
    },
    {
        "pitch": 64,
        "velocity": 118,
        "start": 188.99981100000002,
        "end": 189.38373918750003
    },
    {
        "pitch": 65,
        "velocity": 118,
        "start": 189.42838200000003,
        "end": 189.8123101875
    },
    {
        "pitch": 64,
        "velocity": 118,
        "start": 189.856953,
        "end": 190.02659568750002
    },
    {
        "pitch": 64,
        "velocity": 118,
        "start": 190.07123850000002,
        "end": 190.45516668750003
    },
    {
        "pitch": 62,
        "velocity": 118,
        "start": 190.49980950000003,
        "end": 191.3123086875
    },
    {
        "pitch": 64,
        "velocity": 118,
        "start": 191.3569515,
        "end": 191.52659418750002
    },
    {
        "pitch": 62,
        "velocity": 118,
        "start": 191.57123700000002,
        "end": 191.7408796875
    },
    {
        "pitch": 62,
        "velocity": 118,
        "start": 191.7855225,
        "end": 192.16945068750002
    },
    {
        "pitch": 60,
        "velocity": 118,
        "start": 192.21409350000002,
        "end": 193.24087818750002
    },
    {
        "pitch": 72,
        "velocity": 118,
        "start": 193.28552100000002,
        "end": 194.1337344375
    },
    {
        "pitch": 60,
        "velocity": 118,
        "start": 193.9283775,
        "end": 194.5265911875
    },
    {
        "pitch": 64,
        "velocity": 118,
        "start": 194.571234,
        "end": 194.74087668750002
    },
    {
        "pitch": 62,
        "velocity": 118,
        "start": 194.78551950000002,
        "end": 195.16944768750002
    },
    {
        "pitch": 60,
        "velocity": 118,
        "start": 195.21409050000003,
        "end": 196.24087518750002
    },
    {
        "pitch": 64,
        "velocity": 118,
        "start": 196.28551800000002,
        "end": 196.4551606875
    },
    {
        "pitch": 67,
        "velocity": 118,
        "start": 196.4998035,
        "end": 196.66944618750003
    },
    {
        "pitch": 64,
        "velocity": 118,
        "start": 196.71408900000003,
        "end": 197.5265881875
    },
    {
        "pitch": 67,
        "velocity": 118,
        "start": 197.99980200000002,
        "end": 198.1694446875
    },
    {
        "pitch": 67,
        "velocity": 118,
        "start": 198.2140875,
        "end": 198.38373018750002
    },
    {
        "pitch": 64,
        "velocity": 118,
        "start": 198.42837300000002,
        "end": 198.5980156875
    },
    {
        "pitch": 62,
        "velocity": 118,
        "start": 198.6426585,
        "end": 198.81230118750003
    },
    {
        "pitch": 60,
        "velocity": 118,
        "start": 198.85694400000003,
        "end": 199.6694431875
    },
    {
        "pitch": 57,
        "velocity": 118,
        "start": 199.714086,
        "end": 199.88372868750002
    },
    {
        "pitch": 55,
        "velocity": 118,
        "start": 199.92837150000003,
        "end": 200.31229968750003
    },
    {
        "pitch": 64,
        "velocity": 118,
        "start": 200.3569425,
        "end": 201.8122981875
    },
    {
        "pitch": 55,
        "velocity": 118,
        "start": 202.07122650000002,
        "end": 202.2408691875
    },
    {
        "pitch": 64,
        "velocity": 118,
        "start": 202.285512,
        "end": 202.66944018750002
    },
    {
        "pitch": 64,
        "velocity": 118,
        "start": 202.71408300000002,
        "end": 203.09801118750002
    },
    {
        "pitch": 65,
        "velocity": 118,
        "start": 203.14265400000002,
        "end": 203.52658218750003
    },
    {
        "pitch": 64,
        "velocity": 118,
        "start": 203.57122500000003,
        "end": 203.7408676875
    },
    {
        "pitch": 64,
        "velocity": 118,
        "start": 203.78551050000002,
        "end": 204.16943868750002
    },
    {
        "pitch": 62,
        "velocity": 118,
        "start": 204.21408150000002,
        "end": 204.3837241875
    },
    {
        "pitch": 64,
        "velocity": 118,
        "start": 205.07122350000003,
        "end": 205.24086618750002
    },
    {
        "pitch": 62,
        "velocity": 118,
        "start": 205.28550900000002,
        "end": 205.4551516875
    },
    {
        "pitch": 62,
        "velocity": 118,
        "start": 205.4997945,
        "end": 205.8837226875
    },
    {
        "pitch": 60,
        "velocity": 118,
        "start": 205.9283655,
        "end": 206.5265791875
    },
    {
        "pitch": 72,
        "velocity": 118,
        "start": 206.571222,
        "end": 208.24086318750003
    },
    {
        "pitch": 64,
        "velocity": 118,
        "start": 208.49979150000001,
        "end": 208.66943418750003
    },
    {
        "pitch": 62,
        "velocity": 118,
        "start": 208.714077,
        "end": 208.88371968750002
    },
    {
        "pitch": 60,
        "velocity": 118,
        "start": 208.92836250000002,
        "end": 209.95514718750002
    },
    {
        "pitch": 64,
        "velocity": 118,
        "start": 209.99979000000002,
        "end": 210.1694326875
    },
    {
        "pitch": 67,
        "velocity": 118,
        "start": 210.2140755,
        "end": 210.38371818750002
    },
    {
        "pitch": 69,
        "velocity": 118,
        "start": 210.42836100000002,
        "end": 211.2408601875
    },
    {
        "pitch": 67,
        "velocity": 118,
        "start": 211.714074,
        "end": 211.88371668750003
    },
    {
        "pitch": 67,
        "velocity": 118,
        "start": 211.92835950000003,
        "end": 212.09800218750001
    },
    {
        "pitch": 64,
        "velocity": 118,
        "start": 212.14264500000002,
        "end": 212.31228768750003
    },
    {
        "pitch": 62,
        "velocity": 118,
        "start": 212.3569305,
        "end": 212.52657318750002
    },
    {
        "pitch": 60,
        "velocity": 118,
        "start": 212.57121600000002,
        "end": 213.38371518750003
    },
    {
        "pitch": 57,
        "velocity": 118,
        "start": 213.42835800000003,
        "end": 213.59800068750002
    },
    {
        "pitch": 55,
        "velocity": 118,
        "start": 213.64264350000002,
        "end": 214.02657168750002
    },
    {
        "pitch": 64,
        "velocity": 118,
        "start": 214.07121450000002,
        "end": 215.52657018750003
    },
    {
        "pitch": 64,
        "velocity": 118,
        "start": 215.999784,
        "end": 216.3837121875
    },
    {
        "pitch": 64,
        "velocity": 118,
        "start": 216.428355,
        "end": 216.81228318750001
    },
    {
        "pitch": 65,
        "velocity": 118,
        "start": 216.85692600000002,
        "end": 217.24085418750002
    },
    {
        "pitch": 64,
        "velocity": 118,
        "start": 217.28549700000002,
        "end": 217.4551396875
    },
    {
        "pitch": 64,
        "velocity": 118,
        "start": 217.4997825,
        "end": 217.8837106875
    },
    {
        "pitch": 62,
        "velocity": 118,
        "start": 217.92835350000001,
        "end": 218.5265671875
    },
    {
        "pitch": 64,
        "velocity": 118,
        "start": 218.78549550000002,
        "end": 218.9551381875
    },
    {
        "pitch": 62,
        "velocity": 118,
        "start": 218.999781,
        "end": 219.16942368750003
    },
    {
        "pitch": 62,
        "velocity": 118,
        "start": 219.21406650000003,
        "end": 219.5979946875
    },
    {
        "pitch": 60,
        "velocity": 118,
        "start": 219.6426375,
        "end": 220.24085118750003
    },
    {
        "pitch": 72,
        "velocity": 118,
        "start": 220.49977950000002,
        "end": 221.95513518750002
    },
    {
        "pitch": 64,
        "velocity": 118,
        "start": 221.99977800000002,
        "end": 222.1694206875
    },
    {
        "pitch": 62,
        "velocity": 118,
        "start": 222.2140635,
        "end": 222.5979916875
    },
    {
        "pitch": 60,
        "velocity": 118,
        "start": 222.6426345,
        "end": 223.6694191875
    },
    {
        "pitch": 64,
        "velocity": 118,
        "start": 223.714062,
        "end": 223.88370468750003
    },
    {
        "pitch": 67,
        "velocity": 118,
        "start": 223.92834750000003,
        "end": 224.09799018750002
    },
    {
        "pitch": 69,
        "velocity": 118,
        "start": 224.14263300000002,
        "end": 224.95513218750003
    },
    {
        "pitch": 55,
        "velocity": 118,
        "start": 225.21406050000002,
        "end": 225.38370318750003
    },
    {
        "pitch": 67,
        "velocity": 118,
        "start": 225.428346,
        "end": 225.59798868750002
    },
    {
        "pitch": 67,
        "velocity": 118,
        "start": 225.64263150000002,
        "end": 225.8122741875
    },
    {
        "pitch": 64,
        "velocity": 118,
        "start": 225.856917,
        "end": 226.02655968750003
    },
    {
        "pitch": 62,
        "velocity": 118,
        "start": 226.07120250000003,
        "end": 226.2408451875
    },
    {
        "pitch": 60,
        "velocity": 118,
        "start": 226.28548800000002,
        "end": 226.66941618750002
    },
    {
        "pitch": 62,
        "velocity": 118,
        "start": 226.71405900000002,
        "end": 226.8837016875
    },
    {
        "pitch": 60,
        "velocity": 118,
        "start": 226.9283445,
        "end": 227.09798718750002
    },
    {
        "pitch": 57,
        "velocity": 118,
        "start": 227.14263000000003,
        "end": 227.3122726875
    },
    {
        "pitch": 55,
        "velocity": 118,
        "start": 227.3569155,
        "end": 227.74084368750002
    },
    {
        "pitch": 64,
        "velocity": 118,
        "start": 227.78548650000002,
        "end": 229.24084218750002
    },
    {
        "pitch": 64,
        "velocity": 118,
        "start": 229.71405600000003,
        "end": 230.09798418750003
    },
    {
        "pitch": 64,
        "velocity": 118,
        "start": 230.14262700000003,
        "end": 230.31226968750002
    },
    {
        "pitch": 64,
        "velocity": 118,
        "start": 230.35691250000002,
        "end": 230.5265551875
    },
    {
        "pitch": 65,
        "velocity": 118,
        "start": 230.571198,
        "end": 230.9551261875
    },
    {
        "pitch": 67,
        "velocity": 118,
        "start": 230.99976900000001,
        "end": 231.16941168750003
    },
    {
        "pitch": 64,
        "velocity": 118,
        "start": 231.21405450000003,
        "end": 231.81226818750002
    },
    {
        "pitch": 62,
        "velocity": 118,
        "start": 231.85691100000003,
        "end": 232.24083918750003
    },
    {
        "pitch": 64,
        "velocity": 118,
        "start": 232.49976750000002,
        "end": 232.6694101875
    },
    {
        "pitch": 62,
        "velocity": 118,
        "start": 232.714053,
        "end": 232.88369568750002
    },
    {
        "pitch": 62,
        "velocity": 118,
        "start": 232.92833850000002,
        "end": 233.31226668750003
    },
    {
        "pitch": 60,
        "velocity": 118,
        "start": 233.35690950000003,
        "end": 233.74083768750003
    },
    {
        "pitch": 72,
        "velocity": 118,
        "start": 233.7854805,
        "end": 236.5622634375
    }
]